# xmcd CD database file
#
# Track frame offsets:
#	150
#	19125
#	44650
#	78912
#
# Disc length: 4440 seconds
#
# Revision: 0
# Processed by: cddbd v1.5PL3 Copyright (c) Steve Scherf et al.
# Submitted via: CDex 1.51
#
DISCID=29115604
DTITLE=speena - マルゴレッタ
DYEAR=2003
DGENRE=Hip-Hop
TTITLE0=マルゴレッタ
TTITLE1=ファズ
TTITLE2=ハートのパンプス
TTITLE3=data
EXTD=YEAR: 2003
EXTT0=
EXTT1=
EXTT2=
EXTT3=
PLAYORDER=
